# xmcd
# Copyright (C) 1995-1998 Ti Kan
#
# Track frame offsets:
#       150
#       29385
#       36949
#       44056
#
# Disc length: 743 seconds
#
# Revision: 0
# Processed by: cddbd v1.5.2PL0 Copyright (c) Steve Scherf et al.
# Submitted via: CD-Transfer v1.0
#
DISCID=3202e504
DTITLE=Baja - 
DYEAR=1900
DGENRE=
TTITLE0=Bajka Nowa
TTITLE1=Dla Dzieci
TTITLE2=Dla Dzieci1
TTITLE3=Dla Dzieci 2
EXTD=
EXTT0=
EXTT1=
EXTT2=
EXTT3=
PLAYORDER=
